<svg width="26" height="20" viewBox="0 0 26 20" fill="none" xmlns="http://www.w3.org/2000/svg">
<g clip-path="url(#clip0_333_580)">
<path d="M25.2504 2.37302C24.3411 2.82489 23.3187 3.05103 22.2959 3.1639C23.3187 2.48589 24.1141 1.58215 24.5685 0.339003C23.5457 0.904141 22.5229 1.35601 21.2731 1.58175C20.3638 0.564741 19.0005 0 17.5233 0C14.6823 0 12.4097 2.25976 12.4097 5.08465C12.4097 5.53652 12.4097 5.87553 12.5232 6.21453C8.31847 5.9884 4.56861 3.95477 1.95506 0.903745C1.50062 1.69462 1.2732 2.4855 1.2732 3.5025C1.2732 5.31039 2.18248 6.77927 3.54581 7.68341C2.75044 7.68341 1.95506 7.45728 1.2732 7.00541V7.11828C1.2732 9.60417 2.97786 11.6382 5.36399 12.0901C4.90954 12.2029 4.4547 12.3162 4.00026 12.3162C3.65933 12.3162 3.31839 12.3162 3.09097 12.2033C3.77284 14.2373 5.59101 15.7062 7.86363 15.7062C6.15897 17.0622 3.88635 17.8531 1.49982 17.8531C1.04538 17.8531 0.704444 17.8531 0.25 17.7402C2.52262 19.2091 5.13657 20 8.09105 20C17.5229 20 22.6364 12.3166 22.6364 5.53692V4.85891C23.7732 4.29378 24.5685 3.39003 25.2504 2.37302Z" fill="white"/>
</g>
<defs>
<clipPath id="clip0_333_580">
<rect width="25" height="20" fill="white" transform="translate(0.25)"/>
</clipPath>
</defs>
</svg>
